# xmcd
#
# Track frame offsets:
#	150
#	17640
#	35841
#	52781
#	70009
#	89285
#	113319
#	127171
#	140789
#	154571
#	167546
#
# Disc length: 2410 seconds
#
# Revision: 1
# Processed by: cddbd v1.5.2PL0 Copyright (c) Steve Scherf et al.
# Submitted via: EZCDAudioConverter 8.0.2.1
#
DISCID=8709680b
DTITLE=Hồ Bích Ngọc - Hòa Âm Của Ánh Sáng
DYEAR=2008
DGENRE=World Pop
TTITLE0=Tình đầu
TTITLE1=Ban mai
TTITLE2=Ngày qua bỗng thấy
TTITLE3=Rồi cũng qua
TTITLE4=Cô gái mắt nâu
TTITLE5=Hãy như chưa từng yêu em
TTITLE6=Tình yêu ở lại
TTITLE7=Vừa tan
TTITLE8=Em yêu anh nhiều thế
TTITLE9=Vì em
TTITLE10=Yêu nhau lại
EXTD=
EXTT0=
EXTT1=
EXTT2=
EXTT3=
EXTT4=
EXTT5=
EXTT6=
EXTT7=
EXTT8=
EXTT9=
EXTT10=
PLAYORDER=
